<svg version="1.1" viewBox="0.0 0.0 105.0 20.0" fill="none" stroke="none" stroke-linecap="square" stroke-miterlimit="10" xmlns:xlink="http://www.w3.org/1999/xlink" xmlns="http://www.w3.org/2000/svg"><clipPath id="p.0"><path d="m0 0l105.0 0l0 20.0l-105.0 0l0 -20.0z" clip-rule="nonzero"/></clipPath><g clip-path="url(#p.0)"><path fill="#000000" fill-opacity="0.0" d="m0 0l105.0 0l0 20.0l-105.0 0z" fill-rule="evenodd"/><path fill="#000000" fill-opacity="0.0" d="m-7.356955 -6.361316l119.71654 0l0 32.72441l-119.71654 0z" fill-rule="evenodd"/><path fill="#ff0000" d="m2.6365218 17.958683l0 -16.40625l5.4531245 0l0 16.40625l-5.4531245 0zm6.3281245 0l0 -3.281249l2.703125 0l0 -2.078125l4.968751 0l0 5.359374l-7.671876 0z" fill-rule="nonzero"/><path fill="#ff9900" d="m32.774582 14.677434l-3.265623 3.281249l-3.671875 0l0 -3.062499l1.359375 0l0 -6.796875l-1.359375 0l0 -3.2812505l3.671875 0l3.265623 3.2812505l0 6.578125zm-9.218748 0.21875l1.421875 0l0 3.062499l-3.671875 0l-3.28125 -3.281249l0 -6.578125l3.28125 -3.2812505l3.671875 0l0 3.2812505l-1.421875 0l0 6.796875z" fill-rule="nonzero"/><path fill="#0000ff" d="m40.847244 14.677434l4.6875 0l0 3.281249l-6.875 0l-3.28125 -3.281249l0 -9.859375l3.28125 -3.2656248l2.1875 0l0 13.125zm2.890625 -5.828125l7.515625 0l0 9.109374l-4.859375 0l0 -5.843749l-2.65625 0l0 -3.265625zm-2.03125 -4.0312505l0 -3.2656248l6.671875 0l2.875 3.2656248l0 1.65625l-5.46875 0l0 -1.65625l-4.078125 0z" fill-rule="nonzero"/><path fill="#4a86e8" d="m68.36754 14.677434l-3.265625 3.281249l-3.671875 0l0 -3.062499l1.359375 0l0 -6.796875l-1.359375 0l0 -3.2812505l3.671875 0l3.265625 3.2812505l0 6.578125zm-9.21875 0.21875l1.421875 0l0 3.062499l-3.671875 0l-3.28125 -3.281249l0 -6.578125l3.28125 -3.2812505l3.671875 0l0 3.2812505l-1.421875 0l0 6.796875z" fill-rule="nonzero"/><path fill="#44df00" d="m76.22145 17.958683l-2.1875 0l-3.28125 -3.281249l0 -9.859375l3.28125 -3.2656248l2.1875 0l0 16.40625zm0.859375 -13.140625l0 -3.2656248l5.828125 0l3.28125 3.2656248l0 3.3125005l-5.46875 0l0 -3.3125005l-3.640625 0zm0 13.140625l0 -3.281249l3.640625 0l0 -2.390625l5.46875 0l0 2.390625l-3.28125 3.281249l-5.828125 0z" fill-rule="nonzero"/><path fill="#00df76" d="m97.29591 17.958683l0 -9.859374l-7.765625 0l0 -1.6250005l1.640625 -1.65625l8.203125 0l3.265625 3.2812505l0 9.859374l-5.34375 0zm-0.859375 -7.640624l0 2.265625l-2.8125 0l0 2.3125l2.8125 0l0 1.437499l-1.640625 1.625l-4.171875 0l-2.203125 -2.171874l0 -3.28125l2.203125 -2.1875l5.8125 0z" fill-rule="nonzero"/></g></svg>